<svg id="Capa_1" enable-background="new 0 0 512.032 512.032" height="512" viewBox="0 0 512.032 512.032" width="512" xmlns="http://www.w3.org/2000/svg"><g><path d="m136.512 201.46c-13.718 4.132-24.784 14.999-33.833 33.219-21.22 42.725-31.535 76.729-31.535 103.957 0 79.069 64.328 143.396 143.397 143.396 79.07 0 143.398-64.328 143.398-143.396 0-23.088-7.822-52.182-23.248-86.472l-3.287-7.307-7.074 3.762c-36.371 19.341-73.383-2.076-109.174-22.791-28.085-16.253-54.612-31.604-78.644-24.368zm157.673 69.798c9.857 0 19.841-1.774 29.896-5.947 12.519 29.26 18.858 53.901 18.858 73.326 0 70.798-57.6 128.396-128.398 128.396s-128.397-57.598-128.397-128.397c0-24.514 10.083-57.245 29.969-97.285 7.105-14.307 15.193-22.657 24.726-25.529 2.692-.811 5.521-1.185 8.47-1.185 16.567 0 36.947 11.795 58.335 24.173 26.759 15.488 56.062 32.45 86.541 32.448z"/><path d="m470.888 255.688c0-21.409-9.476-47.617-29.82-82.479l-12.955 7.561c18.949 32.472 27.775 56.278 27.775 74.919 0 39.15-29.976 71.421-68.18 75.092-1.877-33.729-15.669-74.415-42.023-124.03-4.343-8.176-8.927-16.404-13.685-24.663 10.887-18.793 23.777-38.074 36.267-56.758 4.202-6.286 8.254-12.347 12.172-18.297 3.921 5.955 7.975 12.02 12.18 18.31 9.354 13.99 19.024 28.457 27.856 42.738l12.758-7.89c-8.973-14.507-18.719-29.086-28.144-43.185-6.465-9.67-12.571-18.804-18.345-27.77l-6.306-9.792-6.306 9.792c-5.771 8.962-11.874 18.092-18.336 27.758-11.039 16.512-22.365 33.483-32.478 50.325-20.337-33.989-43.298-68.352-65.723-101.896-12.944-19.361-25.171-37.649-36.749-55.63l-6.304-9.793-6.306 9.792c-11.578 17.98-23.805 36.269-36.749 55.63-31.15 46.595-63.362 94.776-88.089 141.328-28.433 53.528-42.254 96.668-42.254 131.887 0 95.611 77.786 173.396 173.397 173.396 43.396 0 84.928-16.114 116.941-45.374l-10.119-11.072c-29.243 26.727-67.18 41.446-106.822 41.446-87.341 0-158.397-71.056-158.397-158.396 0-73.698 67.903-175.266 127.813-264.877 10.661-15.946 20.836-31.167 30.585-46.117 9.749 14.95 19.924 30.171 30.585 46.117 59.909 89.612 127.813 191.18 127.813 264.877 0 39.641-14.719 77.578-41.446 106.821l11.072 10.119c27.637-30.239 43.538-68.969 45.218-109.74 46.451-3.75 83.104-42.748 83.104-90.149z"/><path d="m153.054 342.314h120v15h-120z" transform="matrix(.707 -.707 .707 .707 -184.954 253.111)"/><path d="m182.722 339.007c6.011 0 11.66-2.341 15.91-6.59 8.771-8.773 8.771-23.046 0-31.819-8.771-8.772-23.046-8.773-31.819 0-4.25 4.25-6.591 9.9-6.591 15.91s2.341 11.66 6.591 15.91c4.25 4.249 9.899 6.589 15.909 6.589zm-5.304-27.802c1.463-1.462 3.384-2.193 5.304-2.193 1.921 0 3.842.731 5.303 2.193 2.925 2.924 2.925 7.682 0 10.606-1.416 1.417-3.299 2.197-5.303 2.197-2.003 0-3.887-.78-5.304-2.197-1.416-1.417-2.196-3.3-2.196-5.303s.78-3.887 2.196-5.303z"/><path d="m230.451 364.237c-8.771 8.773-8.771 23.047 0 31.819 4.25 4.25 9.9 6.59 15.91 6.59s11.66-2.341 15.909-6.59c4.25-4.25 6.591-9.9 6.591-15.91s-2.341-11.66-6.591-15.91c-4.249-4.25-9.899-6.59-15.909-6.59s-11.66 2.341-15.91 6.591zm23.41 15.909c0 2.003-.78 3.886-2.197 5.303-1.416 1.417-3.3 2.197-5.303 2.197s-3.887-.78-5.303-2.197c-2.925-2.924-2.924-7.683-.001-10.607 1.417-1.417 3.3-2.196 5.304-2.196s3.887.78 5.303 2.196c1.417 1.418 2.197 3.301 2.197 5.304z"/><path d="m243.281 116.371h15v15h-15z"/><path d="m258.281 146.37h15v15h-15z"/></g></svg>