<svg id="Capa_1" enable-background="new 0 0 512 512" height="512" viewBox="0 0 512 512" width="512" xmlns="http://www.w3.org/2000/svg"><g><path d="m256 113.5c-35.117 0-68.857 12.893-95.007 36.303l10.005 11.176c23.395-20.945 53.583-32.479 85.002-32.479 70.304 0 127.5 57.196 127.5 127.5 0 31.419-11.535 61.606-32.479 85.004l11.176 10.004c23.41-26.151 36.303-59.892 36.303-95.008 0-78.575-63.925-142.5-142.5-142.5z"/><path d="m351.008 362.197-10.006-11.176c-23.394 20.945-53.581 32.479-85.002 32.479-70.304 0-127.5-57.196-127.5-127.5 0-31.423 11.535-61.61 32.479-85.003l-11.175-10.006c-23.411 26.148-36.304 59.889-36.304 95.009 0 78.575 63.925 142.5 142.5 142.5 35.118 0 68.859-12.893 95.008-36.303z"/><path d="m66.24 317.575h46v15h-46z" transform="matrix(.924 -.383 .383 .924 -117.613 58.899)"/><path d="m39.704 162.014h15v15h-15z" transform="matrix(.383 -.924 .924 .383 -127.471 148.255)"/><path d="m179.426 66.239h15v46.001h-15z" transform="matrix(.924 -.383 .383 .924 -19.922 78.325)"/><path d="m81.74 163.926h14.999v46h-14.999z" transform="matrix(.383 -.924 .924 .383 -117.608 197.836)"/><path d="m83.744 38.244h15v106h-15z" transform="matrix(.707 -.707 .707 .707 -37.795 91.244)"/><path d="m162.014 39.703h15v15h-15z" transform="matrix(.924 -.383 .383 .924 -5.16 68.462)"/><path d="m367.755 83.744h106v15h-106z" transform="matrix(.707 -.707 .707 .707 58.706 324.227)"/><path d="m399.76 179.426h46v14.999h-46z" transform="matrix(.924 -.383 .383 .924 -39.353 176.013)"/><path d="m457.297 162.014h15v15h-15z" transform="matrix(.924 -.383 .383 .924 -29.489 190.8)"/><path d="m415.261 302.074h14.999v46h-14.999z" transform="matrix(.383 -.924 .924 .383 -39.357 591.245)"/><path d="m248.5 0h15v76.001h-15z"/><path d="m334.987 39.703h15v15h-15z" transform="matrix(.383 -.924 .924 .383 167.815 345.557)"/><path d="m302.075 81.74h46.001v15h-46.001z" transform="matrix(.383 -.924 .924 .383 118.229 355.421)"/><path d="m413.255 367.755h15v106h-15z" transform="matrix(.707 -.707 .707 .707 -174.283 420.752)"/><path d="m334.986 457.296h15v15h-15z" transform="matrix(.924 -.383 .383 .924 -151.807 166.456)"/><path d="m317.574 399.76h15v46.001h-15z" transform="matrix(.924 -.383 .383 .924 -137.037 156.578)"/><path d="m457.297 334.986h14.999v15h-14.999z" transform="matrix(.383 -.924 .924 .383 -29.491 640.836)"/><path d="m248.5 435.999h15v76.001h-15z"/><path d="m436 248.5h76v15h-76z"/><path d="m163.926 415.26h46.001v15h-46.001z" transform="matrix(.383 -.924 .924 .383 -275.187 433.677)"/><path d="m39.704 334.987h15v14.999h-15z" transform="matrix(.924 -.383 .383 .924 -127.473 44.135)"/><path d="m38.245 413.256h106v15h-106z" transform="matrix(.707 -.707 .707 .707 -270.784 187.74)"/><path d="m162.014 457.296h15v15h-15z" transform="matrix(.383 -.924 .924 .383 -324.772 443.54)"/><path d="m0 248.5h76v15h-76z"/><path d="m308.5 165.999h15v15h-15z"/><path d="m278.5 151h15v15h-15z"/></g></svg>