<?xml version="1.0" standalone="no"?>
<!DOCTYPE svg PUBLIC "-//W3C//DTD SVG 20010904//EN"
 "http://www.w3.org/TR/2001/REC-SVG-20010904/DTD/svg10.dtd">
<svg version="1.0" xmlns="http://www.w3.org/2000/svg"
 width="2330.000000pt" height="312.000000pt" viewBox="0 0 2330.000000 312.000000"
 preserveAspectRatio="xMidYMid meet">

<g transform="translate(0.000000,312.000000) scale(0.100000,-0.100000)"
fill="#000000" stroke="none">
<path d="M1305 2976 c-308 -51 -541 -166 -759 -376 -309 -296 -458 -690 -424
-1117 48 -607 501 -1122 1097 -1248 336 -70 701 -11 990 160 94 57 213 144
219 162 2 7 -17 34 -42 60 l-45 48 -28 -23 c-171 -136 -355 -224 -566 -269
-100 -22 -370 -24 -462 -4 -262 56 -461 159 -641 333 -200 193 -325 431 -370
706 -31 186 -6 441 60 615 155 412 495 705 926 799 125 28 366 29 485 4 336
-73 618 -262 800 -536 299 -448 277 -1040 -54 -1460 l-51 -65 52 -48 53 -47
34 37 c96 108 220 339 266 498 45 158 58 262 51 440 -7 214 -40 353 -128 544
-122 267 -370 521 -636 655 -86 43 -245 98 -352 121 -102 22 -371 28 -475 11z"/>
<path d="M1730 2560 l0 -70 70 0 70 0 0 70 0 70 -70 0 -70 0 0 -70z"/>
<path d="M2014 2477 c-3 -8 -4 -41 -2 -73 l3 -59 70 0 70 0 0 70 0 70 -68 3
c-51 2 -69 -1 -73 -11z"/>
<path d="M12698 2080 l-3 -252 -45 36 c-94 75 -252 94 -362 44 -108 -50 -193
-168 -224 -310 -18 -84 -17 -248 1 -327 44 -186 165 -315 315 -336 95 -14 225
25 296 88 l34 29 0 -51 0 -51 80 0 80 0 -2 688 -3 687 -82 3 -83 3 -2 -251z
m-116 -307 c21 -8 56 -36 78 -61 l40 -45 0 -224 c0 -176 -3 -230 -14 -252 -40
-76 -151 -129 -243 -115 -131 19 -201 106 -222 274 -11 84 -2 202 21 270 48
148 191 213 340 153z"/>
<path d="M18390 1640 l0 -690 85 0 85 0 0 345 c0 379 -1 372 62 431 55 52 95
68 173 68 111 -1 164 -39 184 -135 7 -30 11 -182 11 -379 l0 -330 80 0 80 0 0
358 c0 393 -5 441 -58 517 -54 78 -127 109 -257 109 -66 0 -91 -5 -141 -28
-34 -15 -77 -43 -95 -62 l-34 -35 -5 258 -5 258 -82 3 -83 3 0 -691z"/>
<path d="M13930 2252 c-175 -46 -299 -185 -347 -389 -26 -111 -25 -408 1 -508
61 -233 220 -384 440 -415 191 -27 393 26 498 131 l48 48 0 241 0 240 -240 0
-240 0 0 -70 0 -70 155 0 155 0 0 -143 c0 -136 -1 -145 -22 -164 -44 -40 -105
-63 -201 -74 -108 -12 -186 1 -255 45 -81 51 -146 156 -172 281 -16 72 -17
328 -2 405 27 144 96 247 194 291 44 20 70 24 148 24 83 0 102 -3 150 -27 66
-33 106 -81 136 -162 l22 -61 85 -3 85 -3 -10 48 c-26 124 -121 254 -219 300
-115 54 -282 68 -409 35z"/>
<path d="M723 2038 c4 -173 9 -228 26 -293 75 -285 295 -500 578 -567 49 -11
94 -22 101 -24 9 -2 12 -47 12 -179 l0 -175 56 0 c304 0 585 174 715 445 67
138 79 207 79 448 l0 210 -97 -6 c-179 -12 -335 -71 -465 -176 -40 -32 -89
-79 -108 -104 -19 -26 -37 -46 -40 -47 -3 0 -13 35 -23 78 -54 240 -246 458
-483 548 -89 33 -198 54 -286 54 l-70 0 5 -212z m224 47 c222 -52 409 -237
467 -461 18 -70 33 -309 20 -316 -18 -11 -134 21 -208 57 -164 80 -299 249
-341 427 -15 65 -21 308 -7 308 4 0 35 -7 69 -15z m1203 -439 c0 -142 -21
-243 -71 -346 -80 -162 -248 -294 -427 -334 -56 -13 -64 -13 -69 1 -11 29 5
267 22 323 53 174 176 317 343 400 53 26 150 57 190 59 9 1 12 -26 12 -103z"/>
<path d="M4240 1634 c-129 -340 -240 -632 -247 -651 l-12 -33 88 0 89 0 60
168 60 167 274 3 275 2 62 -170 63 -170 88 0 88 0 -64 168 c-35 92 -147 383
-248 647 l-183 480 -79 3 -79 2 -235 -616z m434 77 c53 -145 96 -267 96 -272
0 -5 -97 -9 -215 -9 -153 0 -215 3 -215 11 0 6 48 144 107 307 105 290 107
295 119 261 6 -19 55 -153 108 -298z"/>
<path d="M6340 2035 l0 -115 -90 0 -90 0 0 -65 0 -65 90 0 90 0 0 -328 c0
-251 3 -340 14 -375 31 -104 96 -151 211 -151 39 0 82 3 98 7 26 7 27 10 27
72 l0 64 -66 -2 c-61 -2 -68 0 -90 26 l-24 28 0 330 0 329 90 0 90 0 0 65 0
65 -90 0 -90 0 0 115 0 115 -85 0 -85 0 0 -115z"/>
<path d="M10570 2035 l0 -115 -85 0 -85 0 0 -65 0 -65 84 0 84 0 5 -337 c3
-226 8 -351 16 -376 31 -96 135 -157 245 -143 100 13 96 10 96 83 l0 66 -46
-6 c-25 -2 -62 0 -81 5 -60 16 -63 35 -63 393 l0 315 90 0 90 0 0 65 0 65 -90
0 -90 0 0 115 0 115 -85 0 -85 0 0 -115z"/>
<path d="M7178 1930 c-72 -13 -152 -53 -207 -105 -95 -89 -140 -195 -148 -350
-9 -174 31 -304 127 -408 195 -213 560 -164 690 92 47 93 63 178 57 301 -13
283 -162 458 -404 474 -37 3 -89 1 -115 -4z m193 -157 c107 -55 162 -170 161
-338 -2 -230 -103 -365 -272 -365 -105 0 -187 57 -236 162 -28 60 -29 69 -29
203 1 129 3 145 26 195 36 76 74 119 134 146 71 34 145 32 216 -3z"/>
<path d="M8283 1930 c-62 -9 -134 -42 -179 -83 l-34 -29 0 28 c0 70 -5 74 -86
74 l-74 0 0 -485 0 -485 80 0 80 0 0 353 0 353 26 40 c51 79 144 114 249 95
70 -13 112 -42 136 -95 17 -37 19 -71 19 -393 l0 -353 85 0 85 0 0 328 c0 183
4 342 10 361 29 101 109 156 225 155 102 -1 152 -32 181 -111 10 -29 13 -119
14 -385 l0 -348 86 0 86 0 -4 368 c-5 403 -8 428 -67 510 -42 57 -102 89 -194
103 -132 20 -234 -12 -332 -102 l-41 -38 -39 46 c-66 79 -182 114 -312 93z"/>
<path d="M9801 1929 c-57 -11 -157 -58 -199 -93 -40 -35 -78 -99 -87 -148 l-7
-38 85 0 c84 0 85 0 90 28 15 73 95 122 202 122 133 0 195 -56 203 -185 l5
-75 -96 0 c-262 0 -410 -59 -474 -187 -55 -114 -32 -258 55 -334 122 -108 326
-113 458 -13 52 40 64 42 64 12 1 -65 5 -68 101 -68 49 0 89 4 89 9 0 5 -5 22
-12 38 -8 19 -14 139 -18 363 -5 334 -5 335 -31 391 -48 102 -127 159 -251
179 -73 11 -115 11 -177 -1z m289 -616 l0 -107 -48 -46 c-145 -140 -382 -91
-382 78 0 127 93 179 323 181 l107 1 0 -107z"/>
<path d="M11420 1929 c-157 -31 -288 -169 -331 -349 -16 -70 -16 -238 1 -310
30 -128 117 -241 227 -293 177 -82 395 -48 517 82 25 28 46 54 45 58 0 4 -22
25 -48 45 l-49 36 -33 -35 c-19 -19 -54 -47 -79 -61 -40 -24 -55 -27 -135 -27
-67 0 -99 5 -127 18 -86 43 -150 139 -164 245 l-7 52 332 0 333 0 -7 93 c-19
274 -122 414 -325 447 -74 11 -88 11 -150 -1z m203 -166 c50 -35 94 -115 103
-190 l7 -53 -242 0 -241 0 0 25 c0 43 41 136 79 178 54 60 101 79 184 74 56
-4 77 -10 110 -34z"/>
<path d="M15137 1924 c-31 -10 -65 -32 -97 -63 l-50 -47 0 53 0 53 -80 0 -80
0 0 -485 0 -485 80 0 80 0 0 343 0 343 26 40 c48 74 136 111 235 98 l49 -7 0
77 c0 73 -1 77 -26 86 -35 14 -80 11 -137 -6z"/>
<path d="M15742 1930 c-156 -32 -284 -161 -333 -335 -9 -30 -14 -97 -14 -170
0 -99 4 -133 24 -194 57 -173 188 -278 372 -297 136 -13 265 31 356 122 l57
57 -44 38 c-25 22 -49 39 -53 39 -5 0 -32 -20 -60 -45 -186 -162 -458 -54
-484 193 l-6 52 327 0 326 0 0 88 c-1 227 -102 394 -265 439 -60 17 -154 23
-203 13z m175 -155 c74 -37 118 -110 125 -210 l3 -40 -240 0 -240 0 4 30 c21
185 196 295 348 220z"/>
<path d="M16710 1929 c-157 -31 -288 -169 -331 -349 -16 -70 -16 -238 1 -310
30 -128 117 -241 227 -293 177 -82 395 -48 517 82 25 28 46 54 45 58 0 4 -22
25 -48 45 l-49 36 -33 -35 c-19 -19 -54 -47 -79 -61 -40 -24 -55 -27 -135 -27
-67 0 -99 5 -127 18 -86 43 -150 139 -164 245 l-7 52 332 0 333 0 -7 93 c-19
274 -122 414 -325 447 -74 11 -88 11 -150 -1z m203 -166 c50 -35 94 -115 103
-190 l7 -53 -242 0 -241 0 0 25 c0 43 41 136 79 178 54 60 101 79 184 74 56
-4 77 -10 110 -34z"/>
<path d="M17730 1924 c-60 -16 -154 -75 -173 -108 -11 -19 -13 -14 -17 39 l-5
60 -77 3 -78 3 0 -486 0 -485 80 0 80 0 0 343 c0 376 -4 353 64 425 49 53 101
76 176 76 88 0 137 -25 168 -84 22 -43 22 -51 22 -402 l0 -358 85 0 85 0 0
353 c0 380 -5 428 -53 509 -34 58 -94 99 -170 115 -78 16 -118 15 -187 -3z"/>
<path d="M19700 1926 c-215 -48 -340 -230 -340 -496 0 -192 70 -341 199 -428
62 -41 162 -72 234 -72 163 0 328 103 393 244 71 156 69 371 -6 529 -35 73
-112 152 -183 187 -100 49 -191 60 -297 36z m195 -145 c63 -29 99 -65 136
-138 34 -67 34 -69 34 -203 -1 -164 -20 -226 -94 -300 -127 -126 -335 -78
-412 96 -42 95 -43 270 -3 389 21 60 102 146 154 162 55 17 140 15 185 -6z"/>
<path d="M21722 1929 c-176 -30 -294 -177 -261 -328 22 -105 114 -167 324
-222 192 -50 235 -81 235 -171 0 -43 -5 -55 -33 -83 -42 -42 -102 -59 -192
-53 -115 8 -188 60 -202 143 l-6 35 -85 0 -85 0 7 -41 c29 -184 232 -302 465
-270 105 14 178 49 234 110 118 132 77 318 -88 396 -29 13 -95 36 -147 51
-180 50 -216 64 -243 95 -46 55 -27 137 40 179 50 31 150 38 208 16 54 -21
107 -74 116 -118 l7 -33 83 -3 84 -3 -5 44 c-15 133 -125 230 -288 256 -74 12
-94 12 -168 0z"/>
<path d="M22710 1929 c-157 -31 -288 -169 -331 -349 -16 -70 -16 -238 1 -310
30 -128 117 -241 227 -293 177 -82 395 -48 517 82 25 28 46 54 45 58 0 4 -22
25 -48 45 l-49 36 -33 -35 c-19 -19 -54 -47 -79 -61 -40 -24 -55 -27 -135 -27
-67 0 -99 5 -127 18 -86 43 -150 139 -164 245 l-7 52 332 0 333 0 -7 93 c-19
274 -122 414 -325 447 -74 11 -88 11 -150 -1z m203 -166 c50 -35 94 -115 103
-190 l7 -53 -242 0 -241 0 0 25 c0 43 41 136 79 178 54 60 101 79 184 74 56
-4 77 -10 110 -34z"/>
<path d="M5260 1618 c0 -167 5 -341 10 -388 17 -146 71 -229 180 -273 115 -48
310 -17 382 60 31 33 38 29 38 -22 l0 -45 80 0 80 0 0 485 0 485 -85 0 -85 0
0 -359 c0 -355 0 -359 -22 -387 -31 -40 -47 -52 -93 -74 -89 -41 -195 -34
-254 16 -56 47 -61 88 -61 466 l0 338 -85 0 -85 0 0 -302z"/>
<path d="M20440 1618 c0 -167 5 -341 10 -388 17 -146 71 -229 180 -273 115
-48 310 -17 382 60 31 33 38 29 38 -22 l0 -45 80 0 80 0 0 485 0 485 -85 0
-85 0 0 -359 c0 -355 0 -359 -22 -387 -31 -40 -47 -52 -93 -74 -89 -41 -195
-34 -254 16 -56 47 -61 88 -61 466 l0 338 -85 0 -85 0 0 -302z"/>
</g>
</svg>
