<?xml version="1.0" standalone="no"?>
<!DOCTYPE svg PUBLIC "-//W3C//DTD SVG 20010904//EN"
 "http://www.w3.org/TR/2001/REC-SVG-20010904/DTD/svg10.dtd">
<svg version="1.0" xmlns="http://www.w3.org/2000/svg"
 width="580.000000pt" height="580.000000pt" viewBox="0 0 580.000000 580.000000"
 preserveAspectRatio="xMidYMid meet">

<g transform="translate(0.000000,580.000000) scale(0.100000,-0.100000)"
fill="#000000" stroke="none">
<path d="M2688 5774 c-4 -4 -49 -11 -100 -15 -51 -5 -122 -13 -158 -19 -36 -6
-83 -13 -105 -16 -22 -3 -44 -10 -49 -15 -6 -5 -27 -9 -47 -9 -21 0 -40 -4
-43 -9 -3 -5 -22 -12 -41 -15 -19 -3 -51 -9 -70 -12 -19 -3 -35 -10 -35 -15 0
-5 -13 -9 -30 -9 -16 0 -30 -4 -30 -10 0 -5 -13 -10 -30 -10 -16 0 -30 -4 -30
-8 0 -5 -22 -15 -50 -22 -27 -7 -50 -17 -50 -22 0 -4 -7 -8 -15 -8 -15 0 -25
-4 -72 -28 -13 -7 -30 -12 -38 -12 -8 0 -15 -4 -15 -10 0 -5 -9 -10 -20 -10
-11 0 -20 -4 -20 -10 0 -5 -9 -10 -20 -10 -11 0 -20 -4 -20 -10 0 -5 -9 -10
-20 -10 -11 0 -20 -4 -20 -10 0 -5 -9 -10 -20 -10 -11 0 -20 -4 -20 -9 0 -5
-8 -11 -17 -14 -18 -6 -73 -37 -83 -47 -3 -3 -15 -11 -27 -17 -56 -32 -68 -39
-87 -55 -11 -10 -25 -18 -31 -18 -6 0 -17 -9 -25 -20 -8 -11 -21 -20 -28 -20
-8 0 -27 -13 -42 -30 -15 -16 -32 -30 -38 -30 -5 0 -22 -12 -38 -28 -16 -15
-45 -38 -64 -52 -41 -29 -350 -338 -350 -350 0 -4 -20 -29 -45 -56 -25 -26
-45 -51 -45 -56 0 -4 -14 -22 -30 -40 -17 -17 -30 -37 -30 -44 0 -8 -4 -14 -8
-14 -5 0 -15 -12 -23 -27 -8 -16 -22 -37 -32 -47 -9 -11 -17 -26 -17 -33 0 -7
-4 -13 -10 -13 -5 0 -10 -6 -10 -13 0 -7 -9 -23 -20 -35 -11 -12 -20 -28 -20
-36 0 -8 -3 -16 -7 -18 -8 -3 -35 -51 -85 -153 -16 -33 -33 -68 -39 -77 -5
-10 -9 -25 -9 -33 0 -8 -4 -15 -10 -15 -5 0 -10 -7 -10 -15 0 -8 -4 -23 -9
-33 -5 -9 -14 -30 -21 -47 -7 -16 -16 -38 -21 -47 -5 -10 -9 -27 -9 -38 0 -11
-4 -20 -10 -20 -5 0 -10 -13 -10 -30 0 -16 -4 -30 -10 -30 -5 0 -10 -13 -10
-29 0 -17 -5 -33 -10 -36 -6 -3 -10 -19 -10 -35 0 -16 -4 -31 -9 -34 -9 -6
-14 -30 -26 -111 -4 -22 -10 -49 -15 -60 -5 -11 -12 -40 -15 -65 -3 -25 -10
-76 -16 -115 -27 -193 -27 -619 0 -810 6 -38 13 -92 17 -120 3 -27 10 -54 15
-60 5 -5 9 -26 9 -46 0 -21 5 -41 10 -44 6 -3 10 -22 10 -41 0 -19 4 -34 9
-34 8 0 11 -11 27 -102 3 -21 10 -38 15 -38 5 0 9 -11 9 -24 0 -14 5 -28 10
-31 6 -3 10 -15 10 -26 0 -10 4 -27 9 -37 5 -9 14 -30 21 -47 7 -16 16 -38 21
-47 5 -10 9 -25 9 -33 0 -8 5 -15 10 -15 6 0 10 -7 10 -15 0 -17 101 -219 112
-223 4 -2 8 -12 8 -23 0 -10 4 -19 9 -19 5 0 11 -8 14 -17 6 -18 37 -73 47
-83 3 -3 11 -17 19 -32 8 -16 18 -28 23 -28 4 0 8 -6 8 -12 0 -7 14 -29 30
-48 16 -19 30 -39 30 -43 0 -4 11 -19 25 -33 14 -14 25 -29 25 -34 0 -5 15
-24 33 -42 18 -18 43 -49 57 -68 28 -40 317 -330 328 -330 4 0 23 -15 42 -33
19 -17 51 -43 70 -57 19 -13 44 -32 54 -42 11 -10 25 -18 31 -18 6 0 17 -9 25
-20 8 -11 19 -20 25 -20 6 0 20 -8 31 -17 10 -10 31 -24 47 -32 15 -8 27 -18
27 -23 0 -4 9 -8 19 -8 11 0 21 -3 23 -7 4 -10 57 -42 81 -50 9 -3 17 -9 17
-14 0 -5 9 -9 20 -9 11 0 20 -4 20 -10 0 -5 9 -10 20 -10 11 0 20 -4 20 -10 0
-5 9 -10 20 -10 11 0 20 -4 20 -10 0 -5 6 -10 13 -10 7 0 39 -13 72 -30 33
-16 68 -30 78 -30 9 0 17 -4 17 -8 0 -5 23 -15 51 -22 27 -8 52 -18 55 -22 3
-4 16 -8 29 -8 13 0 27 -5 30 -10 3 -6 17 -10 31 -10 13 0 24 -4 24 -10 0 -5
15 -10 34 -10 19 0 38 -5 41 -10 3 -6 19 -10 35 -10 16 0 31 -4 34 -9 3 -5 23
-11 43 -14 21 -3 63 -11 93 -17 210 -42 333 -53 585 -52 253 0 366 10 575 52
30 6 72 14 93 17 20 3 40 9 43 14 3 5 15 9 26 9 23 0 81 17 110 31 10 5 29 9
43 9 14 0 25 5 25 10 0 6 11 10 24 10 14 0 27 4 30 8 3 4 28 14 55 22 28 7 51
17 51 22 0 4 7 8 15 8 8 0 24 4 35 10 11 5 29 14 40 20 11 5 27 10 35 10 8 0
15 5 15 10 0 6 9 10 20 10 11 0 20 5 20 10 0 6 9 10 20 10 11 0 20 5 20 10 0
6 9 10 20 10 11 0 20 5 20 10 0 6 9 10 19 10 11 0 21 3 23 8 4 9 57 41 81 49
9 3 17 9 17 14 0 5 9 9 20 9 11 0 20 4 20 8 0 5 12 15 28 23 15 8 36 22 46 32
11 9 26 17 33 17 7 0 13 4 13 8 0 5 12 15 27 23 15 8 41 26 57 42 16 15 33 27
38 27 6 0 22 13 36 28 15 15 43 39 62 52 74 51 75 56 18 113 -24 24 -54 58
-68 77 -44 59 -81 94 -88 84 -4 -6 -23 -21 -42 -34 -19 -13 -47 -37 -62 -52
-14 -15 -30 -28 -36 -28 -5 0 -22 -12 -38 -27 -16 -16 -42 -34 -57 -42 -15 -8
-27 -18 -27 -23 0 -4 -6 -8 -13 -8 -7 0 -22 -8 -33 -17 -25 -23 -74 -53 -96
-60 -10 -3 -18 -9 -18 -14 0 -5 -9 -9 -20 -9 -11 0 -20 -3 -20 -7 0 -5 -10
-13 -23 -19 -12 -6 -41 -21 -64 -33 -97 -48 -126 -61 -139 -61 -8 0 -14 -4
-14 -10 0 -5 -9 -10 -19 -10 -11 0 -23 -4 -26 -10 -3 -5 -17 -10 -31 -10 -13
0 -24 -4 -24 -10 0 -5 -10 -10 -23 -10 -13 0 -27 -4 -33 -8 -5 -5 -29 -14 -54
-21 -25 -7 -53 -17 -62 -22 -10 -5 -29 -9 -42 -9 -14 0 -28 -4 -31 -10 -3 -5
-21 -10 -40 -10 -19 0 -37 -4 -40 -10 -3 -5 -23 -10 -44 -10 -20 0 -41 -4 -47
-9 -5 -5 -31 -12 -59 -15 -27 -3 -93 -11 -145 -17 -191 -25 -530 -15 -750 21
-36 6 -82 13 -103 16 -20 4 -40 10 -43 15 -3 5 -20 9 -39 9 -19 0 -37 5 -40
10 -3 6 -17 10 -31 10 -13 0 -32 4 -42 9 -9 5 -37 15 -62 22 -25 7 -49 16 -54
21 -6 4 -20 8 -33 8 -13 0 -23 5 -23 10 0 6 -11 10 -24 10 -14 0 -28 5 -31 10
-3 6 -15 10 -26 10 -10 0 -19 5 -19 10 0 6 -6 10 -14 10 -17 0 -220 102 -224
112 -2 5 -12 8 -23 8 -10 0 -19 5 -19 10 0 6 -6 10 -13 10 -7 0 -23 9 -35 20
-12 11 -28 20 -37 20 -8 0 -15 4 -15 8 0 5 -12 15 -27 23 -16 8 -35 22 -44 31
-9 10 -21 18 -26 18 -6 0 -24 14 -41 30 -18 17 -35 30 -40 30 -4 0 -33 22 -63
50 -29 27 -57 50 -62 50 -11 0 -229 220 -257 260 -14 19 -39 50 -57 68 -18 18
-33 37 -33 42 0 5 -11 20 -25 34 -14 14 -25 29 -25 33 0 4 -14 24 -30 43 -16
19 -30 39 -30 43 0 4 -9 17 -20 29 -11 12 -20 28 -20 35 0 7 -4 13 -10 13 -5
0 -10 7 -10 15 0 9 -9 25 -20 37 -11 12 -20 28 -20 35 0 7 -4 13 -10 13 -5 0
-10 9 -10 20 0 11 -4 20 -10 20 -5 0 -10 9 -10 20 0 11 -4 20 -10 20 -5 0 -10
9 -10 20 0 11 -4 20 -10 20 -5 0 -10 9 -10 20 0 11 -4 20 -10 20 -5 0 -10 7
-10 15 0 8 -4 24 -10 35 -5 11 -14 29 -20 40 -6 11 -10 27 -10 35 0 8 -4 15
-10 15 -5 0 -10 10 -10 23 0 13 -3 27 -7 30 -11 12 -52 140 -53 165 0 12 -4
22 -9 22 -8 0 -14 23 -27 113 -4 20 -10 40 -15 43 -5 3 -9 24 -9 48 0 23 -4
46 -9 51 -22 23 -41 414 -30 613 12 215 19 285 30 297 5 5 9 28 9 51 0 24 4
45 9 48 5 3 11 23 15 43 13 90 19 113 27 113 5 0 9 10 9 23 1 24 42 152 53
164 4 3 7 17 7 30 0 13 5 23 10 23 6 0 10 7 10 15 0 8 4 24 10 35 5 11 14 29
20 40 5 11 10 27 10 35 0 8 5 15 10 15 6 0 10 9 10 20 0 11 5 20 10 20 6 0 10
9 10 20 0 11 5 20 10 20 6 0 10 9 10 20 0 11 5 20 10 20 6 0 10 9 10 20 0 11
4 20 9 20 5 0 11 8 14 18 6 17 37 72 47 82 3 3 11 17 19 33 8 15 18 27 23 27
4 0 8 6 8 13 0 6 11 25 25 41 14 16 25 33 25 37 0 4 11 19 25 33 14 14 25 29
25 34 0 5 17 27 38 48 20 22 48 55 62 74 28 40 257 270 268 270 4 0 23 15 42
33 19 17 51 43 70 57 19 13 44 32 54 42 11 10 25 18 31 18 6 0 17 9 25 20 8
11 21 20 30 20 9 0 22 9 30 20 8 11 20 20 28 20 7 0 22 9 34 20 12 11 28 20
35 20 7 0 13 5 13 10 0 6 9 10 19 10 11 0 21 3 23 8 5 11 166 92 183 92 8 0
15 5 15 10 0 6 9 10 20 10 11 0 20 4 20 8 0 5 23 15 50 22 28 7 50 16 50 20 0
3 21 11 48 19 26 7 56 16 67 21 11 4 33 13 48 19 15 6 39 11 52 11 13 0 26 4
29 9 3 5 23 11 43 14 21 3 58 11 83 17 249 64 678 73 1000 20 36 -6 82 -13
103 -16 20 -4 40 -10 43 -15 3 -5 23 -9 45 -9 21 0 39 -4 39 -10 0 -5 11 -10
25 -10 14 0 33 -4 43 -9 9 -5 37 -15 62 -22 25 -7 49 -16 55 -21 5 -4 19 -8
32 -8 13 0 23 -4 23 -10 0 -5 11 -10 24 -10 14 0 28 -4 31 -10 3 -5 15 -10 26
-10 10 0 19 -4 19 -10 0 -5 6 -10 14 -10 13 0 51 -17 141 -63 22 -12 50 -26
62 -32 13 -5 23 -13 23 -17 0 -5 9 -8 20 -8 11 0 20 -4 20 -9 0 -5 8 -11 18
-14 22 -7 71 -37 96 -59 11 -10 25 -18 31 -18 6 0 17 -9 25 -20 8 -11 19 -20
25 -20 6 0 20 -8 31 -18 10 -10 35 -28 54 -42 19 -13 42 -31 50 -40 8 -9 31
-27 50 -40 45 -32 247 -234 280 -280 14 -19 42 -52 62 -74 21 -21 38 -44 38
-50 0 -6 9 -18 20 -26 11 -8 20 -19 20 -25 0 -5 14 -26 30 -45 16 -19 30 -41
30 -47 0 -7 4 -13 9 -13 5 0 14 -13 21 -30 7 -16 16 -30 21 -30 5 0 9 -9 9
-20 0 -11 4 -20 9 -20 5 0 14 -13 21 -30 7 -16 16 -30 21 -30 5 0 9 -9 9 -20
0 -11 5 -20 10 -20 6 0 10 -9 10 -20 0 -11 5 -20 10 -20 6 0 10 -9 10 -20 0
-11 5 -20 10 -20 6 0 10 -9 10 -20 0 -11 5 -20 10 -20 6 0 10 -7 10 -15 0 -8
5 -24 10 -35 6 -11 15 -29 20 -40 6 -11 10 -27 10 -35 0 -8 5 -15 10 -15 6 0
10 -10 10 -23 0 -13 3 -27 7 -30 11 -12 52 -140 53 -164 0 -13 4 -23 9 -23 8
0 14 -23 27 -113 4 -20 10 -40 15 -43 5 -3 9 -27 9 -53 0 -26 4 -51 9 -57 22
-23 41 -400 30 -602 -12 -215 -19 -285 -30 -297 -5 -5 -9 -28 -9 -51 0 -24 -4
-45 -9 -48 -5 -3 -11 -23 -15 -43 -13 -90 -19 -113 -27 -113 -5 0 -9 -10 -9
-22 -1 -25 -42 -153 -53 -165 -4 -3 -7 -17 -7 -30 0 -13 -4 -23 -10 -23 -5 0
-10 -7 -10 -15 0 -8 -4 -24 -10 -35 -5 -11 -14 -29 -20 -40 -5 -11 -10 -27
-10 -35 0 -8 -4 -15 -10 -15 -5 0 -10 -9 -10 -20 0 -11 -4 -20 -10 -20 -5 0
-10 -9 -10 -20 0 -11 -4 -20 -10 -20 -5 0 -10 -9 -10 -20 0 -11 -4 -20 -10
-20 -5 0 -10 -9 -10 -20 0 -11 -4 -20 -9 -20 -5 0 -11 -8 -14 -17 -6 -18 -37
-73 -47 -83 -3 -3 -11 -17 -19 -32 -8 -16 -18 -28 -23 -28 -4 0 -8 -6 -8 -12
0 -7 -11 -26 -25 -42 -14 -16 -25 -33 -25 -37 0 -4 -6 -14 -13 -21 -7 -7 -24
-29 -37 -48 -14 -19 -34 -45 -47 -57 -12 -12 -30 -36 -39 -53 -10 -16 -22 -30
-26 -30 -4 0 -8 -7 -8 -15 0 -18 30 -50 80 -85 19 -13 56 -46 82 -73 l48 -48
23 23 c12 13 34 39 47 58 14 19 37 48 52 64 16 16 28 33 28 38 0 5 11 20 25
34 14 14 25 29 25 33 0 4 11 21 25 37 14 16 25 33 25 37 0 4 9 17 20 29 11 12
20 28 20 35 0 7 5 13 10 13 6 0 10 7 10 15 0 8 5 15 10 15 6 0 10 7 10 15 0 8
5 15 10 15 6 0 10 9 10 19 0 11 3 21 8 23 4 2 17 23 30 48 81 155 102 201 102
216 0 8 5 14 10 14 6 0 10 7 10 15 0 8 4 23 9 33 5 9 14 31 21 47 7 17 16 38
21 47 5 10 9 27 9 38 0 11 5 20 10 20 6 0 10 11 10 25 0 14 4 33 9 43 15 29
31 87 31 110 0 12 5 22 10 22 6 0 10 15 10 33 0 18 4 37 9 42 5 6 11 28 14 50
4 22 11 65 17 95 20 100 30 193 39 360 10 207 -7 596 -29 645 -5 11 -11 39
-14 63 -14 105 -19 128 -27 137 -5 5 -9 24 -9 42 0 18 -4 33 -10 33 -5 0 -10
15 -10 34 0 19 -4 38 -10 41 -5 3 -10 17 -10 30 0 13 -4 27 -10 30 -5 3 -10
19 -10 36 0 16 -4 29 -10 29 -5 0 -10 9 -10 20 0 11 -4 29 -10 40 -5 11 -14
29 -20 40 -5 11 -10 29 -10 40 0 11 -4 20 -10 20 -5 0 -10 9 -10 20 0 11 -4
20 -10 20 -5 0 -10 6 -10 13 0 18 -101 221 -112 225 -4 2 -8 12 -8 23 0 10 -4
19 -10 19 -5 0 -10 7 -10 15 0 9 -9 25 -20 37 -11 12 -20 28 -20 35 0 7 -4 13
-10 13 -5 0 -10 6 -10 13 0 7 -9 23 -20 35 -11 12 -20 25 -20 29 0 4 -11 21
-25 37 -14 16 -25 32 -25 36 0 4 -16 25 -35 46 -19 21 -35 42 -35 46 0 4 -18
27 -40 49 -22 23 -40 45 -40 50 0 13 -298 309 -340 339 -19 13 -42 31 -50 40
-8 9 -31 27 -50 40 -19 13 -41 30 -48 37 -7 7 -26 20 -42 30 -17 9 -30 21 -30
25 0 4 -6 8 -13 8 -7 0 -22 8 -33 18 -10 9 -31 23 -46 31 -16 8 -28 18 -28 23
0 4 -9 8 -19 8 -11 0 -21 3 -23 8 -4 9 -57 41 -80 49 -10 3 -18 9 -18 14 0 5
-9 9 -20 9 -11 0 -20 5 -20 10 0 6 -9 10 -20 10 -11 0 -20 5 -20 10 0 6 -9 10
-20 10 -11 0 -20 5 -20 10 0 6 -9 10 -20 10 -11 0 -20 5 -20 10 0 6 -6 10 -13
10 -7 0 -32 9 -55 20 -22 11 -48 20 -57 20 -8 0 -15 4 -15 8 0 5 -22 15 -50
22 -27 7 -50 17 -50 22 0 4 -13 8 -30 8 -16 0 -30 5 -30 10 0 6 -11 10 -25 10
-14 0 -33 4 -43 9 -29 14 -87 31 -110 31 -11 0 -23 4 -26 9 -3 5 -23 11 -43
14 -21 3 -63 11 -93 17 -88 17 -169 30 -260 41 -106 12 -523 23 -532 13z"/>
<path d="M3354 5017 c-2 -7 -3 -74 -2 -148 l3 -134 145 0 145 0 0 145 0 145
-143 3 c-111 2 -144 0 -148 -11z"/>
<path d="M3954 4717 c-2 -7 -3 -74 -2 -148 l3 -134 145 0 145 0 0 145 0 145
-143 3 c-111 2 -144 0 -148 -11z"/>
<path d="M1277 4234 c-4 -4 -7 -145 -6 -313 1 -382 17 -652 40 -676 5 -5 9
-24 9 -41 0 -18 5 -36 10 -39 6 -3 10 -19 10 -35 0 -16 5 -32 10 -35 6 -3 10
-17 10 -31 0 -13 5 -24 10 -24 6 0 10 -11 10 -24 0 -14 5 -28 10 -31 6 -3 10
-15 10 -26 0 -10 5 -19 10 -19 6 0 10 -9 10 -20 0 -11 5 -20 10 -20 6 0 10 -6
10 -13 0 -18 24 -67 33 -67 4 0 7 -9 7 -20 0 -11 5 -20 10 -20 6 0 10 -6 10
-13 0 -7 9 -23 20 -35 11 -12 20 -25 20 -29 0 -4 14 -24 30 -43 16 -19 30 -39
30 -43 0 -5 13 -21 28 -35 15 -15 39 -43 52 -62 31 -45 95 -108 140 -140 19
-14 50 -39 68 -57 18 -18 36 -33 41 -33 4 0 21 -11 37 -25 16 -14 33 -25 37
-25 4 0 17 -9 29 -20 12 -11 28 -20 35 -20 7 0 13 -4 13 -10 0 -5 9 -10 19
-10 11 0 21 -3 23 -7 4 -11 87 -53 104 -53 8 0 14 -4 14 -10 0 -5 9 -10 20
-10 11 0 20 -4 20 -10 0 -5 10 -10 23 -10 13 0 27 -4 32 -8 6 -5 30 -14 55
-21 25 -7 53 -17 62 -22 10 -5 31 -9 47 -9 17 0 33 -4 36 -10 3 -5 26 -10 50
-10 24 0 47 -5 50 -10 3 -5 28 -10 56 -10 27 0 50 -1 51 -2 1 -2 5 -167 8
-368 l5 -365 155 1 c85 1 189 6 230 13 41 6 94 14 118 17 23 3 42 10 42 15 0
5 10 9 22 9 29 0 112 27 160 51 10 5 27 9 38 9 11 0 20 5 20 10 0 6 9 10 20
10 11 0 20 5 20 10 0 6 9 10 20 10 11 0 20 5 20 10 0 6 9 10 20 10 11 0 20 5
20 10 0 6 9 10 20 10 11 0 20 4 20 9 0 5 8 11 18 14 22 7 71 37 96 59 11 10
24 18 29 18 5 0 17 8 26 18 9 10 32 29 51 42 42 30 240 226 240 238 0 5 14 23
30 40 16 18 30 35 30 39 0 5 11 21 25 37 14 16 25 33 25 37 0 4 6 14 13 21 13
14 42 65 77 138 13 25 26 53 31 62 5 10 9 25 9 33 0 8 3 15 8 15 4 0 18 35 30
78 13 42 28 85 33 94 5 10 9 30 9 46 0 15 4 32 9 38 22 22 39 308 40 675 1
233 -2 299 -13 314 -12 16 -22 17 -112 11 -240 -19 -376 -35 -388 -47 -6 -5
-25 -9 -43 -9 -18 0 -33 -4 -33 -10 0 -5 -10 -10 -22 -10 -25 0 -93 -22 -104
-33 -4 -4 -18 -7 -31 -7 -12 0 -23 -4 -23 -10 0 -5 -6 -10 -14 -10 -16 0 -140
-62 -144 -72 -2 -5 -12 -8 -23 -8 -10 0 -19 -4 -19 -10 0 -5 -6 -10 -13 -10
-7 0 -23 -9 -35 -20 -12 -11 -27 -20 -34 -20 -8 0 -20 -9 -28 -20 -8 -11 -20
-20 -26 -20 -6 0 -30 -18 -53 -40 -22 -22 -45 -40 -51 -40 -12 0 -180 -169
-180 -182 0 -5 -15 -24 -34 -43 -19 -19 -37 -43 -41 -55 -8 -25 -25 -26 -25
-2 0 10 -4 22 -9 27 -5 6 -12 30 -15 55 -9 81 -18 120 -27 126 -5 3 -9 18 -9
34 0 16 -4 32 -10 35 -5 3 -10 17 -10 30 0 13 -4 27 -10 30 -5 3 -10 15 -10
26 0 10 -4 19 -10 19 -5 0 -10 8 -10 18 -1 21 -90 202 -110 222 -3 3 -11 17
-19 33 -8 15 -18 27 -23 27 -4 0 -8 6 -8 14 0 7 -13 27 -30 44 -16 18 -30 36
-30 41 0 13 -217 231 -260 261 -19 13 -42 31 -50 40 -8 8 -27 21 -42 29 -16 8
-28 18 -28 23 0 4 -6 8 -13 8 -7 0 -23 9 -35 20 -12 11 -28 20 -37 20 -8 0
-15 5 -15 10 0 6 -9 10 -20 10 -11 0 -20 3 -20 8 0 8 -49 32 -67 32 -7 0 -13
5 -13 10 0 6 -9 10 -20 10 -11 0 -20 4 -20 8 0 5 -23 15 -51 22 -27 8 -52 18
-55 22 -3 4 -16 8 -29 8 -13 0 -27 5 -30 10 -3 6 -22 10 -41 10 -19 0 -34 4
-34 9 0 5 -19 12 -42 15 -24 3 -72 10 -108 16 -78 14 -382 24 -393 14z m428
-324 c3 -5 22 -10 41 -10 19 0 34 -4 34 -10 0 -5 13 -10 29 -10 17 0 33 -4 36
-10 3 -5 17 -10 31 -10 13 0 24 -4 24 -10 0 -5 7 -10 15 -10 8 0 23 -4 33 -9
9 -5 37 -19 62 -31 25 -13 55 -28 67 -34 13 -6 23 -14 23 -18 0 -5 9 -8 20 -8
11 0 20 -4 20 -8 0 -5 12 -15 28 -23 15 -8 34 -21 42 -29 8 -9 31 -27 50 -40
41 -29 180 -166 180 -178 0 -4 16 -25 35 -46 19 -21 35 -42 35 -46 0 -4 11
-20 25 -36 14 -16 25 -35 25 -41 0 -7 5 -13 10 -13 6 0 10 -9 10 -20 0 -11 5
-20 10 -20 6 0 10 -9 10 -20 0 -11 5 -20 10 -20 6 0 10 -9 10 -20 0 -11 5 -20
10 -20 6 0 10 -9 10 -19 0 -11 5 -23 10 -26 6 -3 10 -17 10 -31 0 -13 5 -24
10 -24 6 0 10 -13 10 -30 0 -16 4 -30 9 -30 5 0 11 -15 14 -32 4 -18 11 -58
17 -88 17 -85 31 -311 28 -460 l-3 -135 -35 2 c-63 4 -125 15 -134 24 -6 5
-25 9 -43 9 -18 0 -33 5 -33 10 0 6 -9 10 -20 10 -11 0 -28 4 -38 9 -9 5 -28
13 -42 19 -14 5 -54 24 -90 42 -36 18 -75 38 -87 44 -13 6 -23 14 -23 19 0 4
-6 7 -12 7 -7 0 -29 14 -48 30 -19 16 -39 30 -44 30 -11 0 -256 245 -256 256
0 5 -14 25 -30 44 -16 19 -30 41 -30 48 0 6 -3 12 -7 12 -5 0 -13 10 -18 23
-6 12 -20 40 -32 62 -33 64 -61 127 -74 170 -7 22 -17 44 -21 49 -4 6 -8 24
-8 41 0 17 -4 35 -9 41 -12 12 -20 71 -31 219 -10 147 -12 399 -3 408 10 11
121 8 128 -3z m2523 -845 c4 -192 -19 -488 -39 -509 -5 -6 -9 -25 -9 -43 0
-18 -4 -33 -10 -33 -5 0 -10 -13 -10 -30 0 -16 -4 -30 -10 -30 -5 0 -10 -11
-10 -24 0 -14 -4 -28 -10 -31 -5 -3 -10 -15 -10 -26 0 -10 -4 -19 -10 -19 -5
0 -10 -9 -10 -20 0 -11 -4 -20 -10 -20 -5 0 -10 -9 -10 -19 0 -11 -3 -21 -7
-23 -5 -1 -19 -23 -33 -48 -13 -25 -32 -54 -42 -64 -10 -11 -18 -24 -18 -29 0
-5 -8 -17 -18 -26 -10 -9 -29 -32 -42 -51 -32 -45 -135 -148 -180 -180 -19
-13 -44 -32 -54 -42 -11 -10 -25 -18 -31 -18 -6 0 -17 -9 -25 -20 -8 -11 -22
-20 -32 -20 -10 0 -18 -3 -18 -7 0 -5 -10 -13 -23 -19 -119 -60 -149 -74 -162
-74 -8 0 -15 -4 -15 -10 0 -5 -13 -10 -30 -10 -16 0 -30 -4 -30 -10 0 -5 -13
-10 -29 -10 -17 0 -33 -4 -36 -10 -3 -5 -22 -10 -41 -10 -19 0 -34 -4 -34 -10
0 -6 -28 -10 -65 -10 l-65 0 1 163 c1 228 20 461 40 482 5 5 9 24 9 42 0 18 5
33 10 33 6 0 10 9 10 20 0 11 4 28 9 38 5 9 13 28 19 42 5 14 24 54 42 90 18
36 38 75 44 87 6 13 14 23 19 23 4 0 7 6 7 13 0 7 8 22 19 33 10 11 24 30 30
43 33 60 268 291 298 291 7 0 13 4 13 8 0 5 12 15 28 23 15 8 29 16 32 19 10
10 65 41 83 47 9 3 17 9 17 14 0 5 6 9 13 9 7 0 32 9 55 20 22 11 48 20 56 20
8 0 18 5 21 10 3 6 17 10 31 10 13 0 24 4 24 9 0 9 11 11 117 29 29 5 56 12
60 16 4 4 21 6 38 4 l30 -3 3 -130z"/>
</g>
</svg>
