<svg id="Capa_1" enable-background="new 0 0 512 512" height="512" viewBox="0 0 512 512" width="512" xmlns="http://www.w3.org/2000/svg"><g><path d="m391 497h15v15h-15z"/><path d="m443.5 467h-86.889c22.037-24.608 34.389-56.512 34.389-90.001 0-29.46-9.322-57.454-26.958-80.954-15.929-21.225-38.157-37.53-63.042-46.354v-60.193h15v-15h-52.5v-36.627c37.846-3.772 67.5-35.8 67.5-74.622v-29.998h-7.5c-24.963 0-47.116 12.257-60.756 31.07-5.197-36.316-36.511-64.321-74.244-64.321h-7.5v29.999c0 38.822 29.653 70.85 67.5 74.622v69.877h-52.5v15h15v22.5h15v-22.5h22.5v104.25h-78.884c14.084-14.563 31.795-25.543 51.087-31.471l5.297-1.627v-33.652h-15v22.693c-24.884 8.823-47.112 25.129-63.042 46.354-17.636 23.5-26.958 51.494-26.958 80.954 0 33.489 12.352 65.393 34.389 90.001h-86.889c-12.407 0-22.5 10.094-22.5 22.5v22.5h330v-15h-315v-7.5c0-4.136 3.365-7.5 7.5-7.5h375c4.135 0 7.5 3.364 7.5 7.5v7.5h-30v15h45v-22.5c0-12.406-10.093-22.5-22.5-22.5zm-180-358.756c0-30.54 22.943-55.824 52.5-59.526v14.531c0 30.542-22.943 55.827-52.5 59.527zm-67.5-78.245v-14.532c29.556 3.702 52.5 28.986 52.5 59.526v14.533c-29.556-3.7-52.5-28.985-52.5-59.527zm67.5 159.499h22.5v71.152l5.297 1.627c19.292 5.928 37.003 16.908 51.087 31.471h-78.884zm-127.5 187.501c0-24.659 7.351-48.156 21.293-68.251h91.207v58.988l-29.208 58.415 13.417 6.709 24.867-49.734 68.885 52.352 9.076-11.943-72.037-54.748v-60.039h91.207c13.942 20.095 21.293 43.592 21.293 68.251 0 34.539-14.785 67.183-40.65 90.001h-158.7c-25.865-22.818-40.65-55.462-40.65-90.001z"/><path d="m343.565 353.747h15v15h-15z"/><path d="m328.565 323.748h15v15h-15z"/></g></svg>