<svg id="Capa_1" enable-background="new 0 0 512 512" height="512" viewBox="0 0 512 512" width="512" xmlns="http://www.w3.org/2000/svg"><g><path d="m248.5 497h15v15h-15z"/><path d="m361 0h-210c-12.406 0-22.5 10.093-22.5 22.5v467c0 12.407 10.093 22.5 22.5 22.5h82.5v-15h-82.5c-4.135 0-7.5-3.365-7.5-7.5v-467c0-4.135 3.364-7.5 7.5-7.5h210c4.135 0 7.5 3.365 7.5 7.5v467c0 4.135-3.364 7.5-7.5 7.5h-82.5v15h82.5c12.406 0 22.5-10.093 22.5-22.5v-467c0-12.407-10.093-22.5-22.5-22.5z"/><path d="m218.5 334.871c-18.61 12.465-30 33.584-30 56.13 0 37.219 30.281 67.5 67.5 67.5s67.5-30.28 67.5-67.5c0-22.546-11.391-43.665-30.001-56.13v-18.341h15v-15h-15v-15h30v-15h-30v-15h15v-15h-15v-15h30v-15h-30v-15h15v-15h-15v-15h30v-15h-30v-15h15v-15h-15v-30.53c0-20.678-16.822-37.5-37.5-37.5s-37.499 16.822-37.499 37.5v15h15v-15c0-12.407 10.093-22.5 22.5-22.5 12.406 0 22.5 10.093 22.5 22.5v252.354l3.745 2.167c16.194 9.369 26.255 26.795 26.255 45.479 0 28.948-23.552 52.5-52.5 52.5s-52.5-23.551-52.5-52.5c0-18.684 10.061-36.111 26.255-45.479l3.745-2.166v-222.355h-15z"/><path d="m338.5 60h15v15h-15z"/><path d="m338.5 30h15v15h-15z"/><path d="m218.5 391c0 20.678 16.822 37.5 37.5 37.5 20.677 0 37.5-16.822 37.5-37.5 0-18.11-12.904-33.261-30-36.745v-255.756h-15v255.756c-17.096 3.484-30 18.636-30 36.745zm37.5-22.5c12.406 0 22.5 10.093 22.5 22.5s-10.093 22.5-22.5 22.5-22.5-10.093-22.5-22.5 10.093-22.5 22.5-22.5z"/></g></svg>