<svg id="Capa_1" enable-background="new 0 0 512.007 512.007" height="512" viewBox="0 0 512.007 512.007" width="512" xmlns="http://www.w3.org/2000/svg"><g><path d="m353.507 475.629h15v15h-15z"/><path d="m395.257 21.378c-64.376 0-116.75 52.374-116.75 116.75v22.5h-105.001c-12.406 0-22.499 10.094-22.499 22.5 0 9.646 6.103 17.892 14.65 21.084l-5.516 99.295-62.717-109.933-6.88-24.05c2.671-2.729 4.611-6.119 5.63-9.92 1.559-5.817.766-11.879-2.231-17.069-6.202-10.744-19.99-14.439-30.735-8.236l-19.484 11.25 7.5 12.99 19.484-11.249c3.579-2.068 8.177-.837 10.245 2.746.994 1.72 1.254 3.739.732 5.686s-1.757 3.565-3.478 4.559l-5.071 2.928-46.891 27.071c-3.582 2.068-8.178.835-10.245-2.745-2.067-3.582-.836-8.178 2.745-10.246l19.485-11.249-7.5-12.99-19.484 11.249c-10.745 6.203-14.439 19.991-8.236 30.736 5.153 8.925 15.538 12.987 25.07 10.549l17.061 17.646 105.869 246.45c.194 5.096 2.237 9.931 5.882 13.784 4.308 4.554 10.363 7.166 16.614 7.166h165v-15h-165c-2.114 0-4.252-.925-5.717-2.474-.884-.935-1.912-2.493-1.795-4.61l2.94-52.917h234.144l2.94 52.916c.117 2.116-.912 3.675-1.797 4.61-1.466 1.549-3.603 2.475-5.715 2.475h-15v15h15c6.249 0 12.304-2.612 16.611-7.166 4.112-4.347 6.199-9.94 5.877-15.75l-4.56-82.084h28.072c37.22 0 67.5-30.28 67.5-67.5v-180c.001-64.378-52.373-116.752-116.749-116.752zm-221.751 154.25h225.001c4.136 0 7.5 3.365 7.5 7.5s-3.364 7.5-7.5 7.5h-225.001c-4.135 0-7.499-3.364-7.499-7.5 0-4.135 3.364-7.5 7.499-7.5zm217.906 30 9.167 165h-229.144l9.166-165zm14.944-1.415c8.547-3.192 14.651-11.438 14.651-21.084 0-12.407-10.094-22.5-22.5-22.5h-75v-22.5c0-39.563 32.187-71.75 71.75-71.75s71.75 32.187 71.75 71.75v180c0 12.196-10.304 22.5-22.5 22.5h-30.572zm-253.566 231.605-91.778-213.649 26.672-15.399 70.925 124.322zm-71.149-242.879-28.829 16.644-10.747-11.115 35.324-20.394zm88.127 207.69.833-15h230.811l.833 15zm327.239-82.5c0 28.948-23.552 52.5-52.5 52.5h-28.905l-.833-15h29.739c20.678 0 37.5-16.822 37.5-37.5v-180c0-47.834-38.916-86.75-86.75-86.75s-86.75 38.916-86.75 86.75v22.5h-15v-22.5c0-56.105 45.645-101.75 101.75-101.75s101.75 45.645 101.75 101.75v180z"/><path d="m286.007 348.129c19.93 0 36.145-16.214 36.145-36.145 0-15.395-11.973-33.304-23.552-50.624-2.22-3.321-4.316-6.457-6.287-9.517l-6.306-9.792-6.306 9.792c-1.97 3.059-4.065 6.194-6.285 9.513-11.58 17.321-23.555 35.232-23.555 50.627.001 19.932 16.215 36.146 36.146 36.146zm-.121-78.435c.04-.061.081-.121.121-.181.041.061.082.123.123.184 9.854 14.739 21.021 31.445 21.021 42.287 0 11.659-9.485 21.145-21.145 21.145s-21.146-9.485-21.146-21.145c.002-10.843 11.171-27.55 21.026-42.29z"/><path d="m331.007 220.628h15v15h-15z"/><path d="m361.007 220.628h15v15h-15z"/></g></svg>